<svg xmlns="http://www.w3.org/2000/svg" viewBox="0 0 301.26 300.56"><defs><style>.cls-1{fill:#b21f2a;}</style></defs><title>fort-elizabeth-mark</title><g id="Layer_2" data-name="Layer 2"><g id="Layer_1-2" data-name="Layer 1"><path class="cls-1" d="M150.66,0c5.6,5.66,11,11.18,16.51,16.66C176,25.47,184.74,34.3,193.63,43a5.82,5.82,0,0,0,3.73,1.34q28.69.13,57.38,0c2.51,0,2.94.8,2.93,3.07-.09,19,0,38.1-.09,57.15a5.74,5.74,0,0,0,1.88,4.51c13.68,13.56,27.25,27.22,40.92,40.79,1.59,1.58.76,2.45-.41,3.62q-19.72,19.67-39.43,39.36a6.34,6.34,0,0,0-2.05,4.94c.06,16.85,0,33.71.07,50.56a3.88,3.88,0,0,1-2.55,4.12q-35.91,17.23-71.74,34.62c-8.81,4.26-17.62,8.52-26.4,12.85a4.8,4.8,0,0,1-4.44.12Q123.08,286.8,92.69,273.6c-16.37-7.13-32.71-14.31-49.1-21.41a3.21,3.21,0,0,1-2.26-3.49q.13-26.34,0-52.68a5.76,5.76,0,0,0-1.51-3.65Q21.46,173.82,3,155.44c-3.93-3.92-4-3.9,0-7.86q19.69-19.68,39.36-39.4a4.49,4.49,0,0,0,1.07-2.9q.09-28.93,0-57.85c0-2.29.43-3.09,2.93-3.08,19,.11,38.1,0,57.15.08A5.75,5.75,0,0,0,108,42.61Q128.66,21.75,149.47,1C149.74.74,150.05.52,150.66,0Zm.25,49.25c-1.09,1-1.67,1.49-2.21,2-8.54,8.52-17.13,17-25.58,25.6a7,7,0,0,1-5.54,2.33c-12.07-.09-24.14,0-36.21-.1-2.16,0-2.83.62-2.81,2.8q.14,18.58,0,37.15A6.13,6.13,0,0,1,77,123q-13.1,13.32-26.43,26.41c-1.42,1.4-1.4,2.18,0,3.57,8.36,8.26,16.6,16.63,25,24.89a5.23,5.23,0,0,1,1.71,4.11c0,13.72,0,27.43,0,41.15,0,1.63.38,2.62,2,3.19,1.84.64,3.58,1.57,5.38,2.35q33.5,14.59,67,29.2a5,5,0,0,0,4.63-.06q32.32-15.73,64.71-31.32a3.23,3.23,0,0,0,2.16-3.38c-.06-12.93.05-25.87-.08-38.8a8.49,8.49,0,0,1,2.8-6.76c8.3-8.1,16.41-16.39,24.66-24.54,1.34-1.32,1.56-2.13.09-3.58-8.76-8.63-17.39-17.4-26.15-26a6,6,0,0,1-2-4.74c.08-12.15,0-24.3.09-36.45,0-2.37-.67-3.08-3.06-3.06-12,.11-24,0-36,.1a7.08,7.08,0,0,1-5.56-2.34c-6.8-6.94-13.72-13.76-20.54-20.67C155.15,54,153.11,51.65,150.91,49.25Z"/></g></g></svg>