<svg xmlns="http://www.w3.org/2000/svg" viewBox="0 0 1444.84 300.56"><defs><style>.cls-1{fill:#b21f2a;}.cls-2{fill:#231f20;}</style></defs><title>fort-elizabeth-logo-full</title><g id="Layer_2" data-name="Layer 2"><g id="Layer_1-2" data-name="Layer 1"><path class="cls-1" d="M150.66,0c5.6,5.66,11,11.18,16.51,16.66C176,25.47,184.74,34.3,193.63,43a5.82,5.82,0,0,0,3.73,1.34q28.69.13,57.38,0c2.51,0,2.94.8,2.93,3.07-.09,19,0,38.1-.09,57.15a5.74,5.74,0,0,0,1.88,4.51c13.68,13.56,27.25,27.22,40.92,40.79,1.59,1.58.76,2.45-.41,3.62q-19.72,19.67-39.43,39.36a6.34,6.34,0,0,0-2.05,4.94c.06,16.85,0,33.71.07,50.56a3.88,3.88,0,0,1-2.55,4.12q-35.91,17.23-71.74,34.62c-8.81,4.26-17.62,8.52-26.4,12.85a4.8,4.8,0,0,1-4.44.12Q123.08,286.8,92.69,273.6c-16.37-7.13-32.71-14.31-49.1-21.41a3.21,3.21,0,0,1-2.26-3.49q.13-26.34,0-52.68a5.76,5.76,0,0,0-1.51-3.65Q21.46,173.82,3,155.44c-3.93-3.92-4-3.9,0-7.86q19.69-19.68,39.36-39.4a4.49,4.49,0,0,0,1.07-2.9q.09-28.93,0-57.85c0-2.29.43-3.09,2.93-3.08,19,.11,38.1,0,57.15.08A5.75,5.75,0,0,0,108,42.61Q128.66,21.75,149.47,1C149.74.74,150.05.52,150.66,0Zm.25,49.25c-1.09,1-1.67,1.49-2.21,2-8.54,8.52-17.13,17-25.58,25.6a7,7,0,0,1-5.54,2.33c-12.07-.09-24.14,0-36.21-.1-2.16,0-2.83.62-2.81,2.8q.14,18.58,0,37.15A6.13,6.13,0,0,1,77,123q-13.1,13.32-26.43,26.41c-1.42,1.4-1.4,2.18,0,3.57,8.36,8.26,16.6,16.63,25,24.89a5.23,5.23,0,0,1,1.71,4.11c0,13.72,0,27.43,0,41.15,0,1.63.38,2.62,2,3.19,1.84.64,3.58,1.57,5.38,2.35q33.5,14.59,67,29.2a5,5,0,0,0,4.63-.06q32.32-15.73,64.71-31.32a3.23,3.23,0,0,0,2.16-3.38c-.06-12.93.05-25.87-.08-38.8a8.49,8.49,0,0,1,2.8-6.76c8.3-8.1,16.41-16.39,24.66-24.54,1.34-1.32,1.56-2.13.09-3.58-8.76-8.63-17.39-17.4-26.15-26a6,6,0,0,1-2-4.74c.08-12.15,0-24.3.09-36.45,0-2.37-.67-3.08-3.06-3.06-12,.11-24,0-36,.1a7.08,7.08,0,0,1-5.56-2.34c-6.8-6.94-13.72-13.76-20.54-20.67C155.15,54,153.11,51.65,150.91,49.25Z"/><path class="cls-2" d="M418.15,103.22h31.41v17H418.15v11.6h34.14v18.49h-54V72.8h54V91.18H418.15Z"/><path class="cls-2" d="M492.67,114.93c-1,17.95-9,37.87-34.25,35.35V132c16,.88,14.77-16.09,16-33.27l1.86-25.94H528v77.48h-19.7V91.4H494Z"/><path class="cls-2" d="M583.28,119.31c.11,0,2-14.56,2-14.56l-.55-.11-7.33,15.1-18.6,30.53H540.28V72.8H560v35.13c-.11,0-1.64,11.6-1.64,11.6l.44.11,6.46-13.9L585,72.8H603v77.48h-19.7Z"/><path class="cls-2" d="M668.42,127.08c0,15.32-11.49,24.29-31.08,24.29-12,0-22.54-5.69-28.34-15.21l12.48-9.74c4.38,4.92,10,7.77,14.77,7.77,7.88,0,12.48-2.74,12.48-8.32S645,117,638.66,117H627.17V103.55h11.05c5.8,0,9.3-3,9.3-8.1,0-4.38-3.28-7.33-9.85-7.33-5.69,0-11.6,3.61-14.12,5.47L613.27,83.52C619.4,76,627.82,71.7,639.09,71.7c17.18,0,26.7,8.32,26.7,22.43,0,5-2.84,12-8.43,14.88C665.47,113.07,668.42,120.18,668.42,127.08Z"/><path class="cls-2" d="M741.85,150.28h-21l-5-15.54H695.13l-4.81,15.54h-21l27-77.48h17.84ZM711.1,117.34l-5.36-22.65h-.55l-5.69,22.65Z"/><path class="cls-2" d="M795.26,109a19.65,19.65,0,0,1,10.94,21.23c-2,12.48-10.4,20-27.58,20H747V72.8h31.08c14.77,0,25.61,8.86,25.17,23.64C803.14,99.94,800.84,106.18,795.26,109Zm-17.18-5.91c9.52,0,9.85-13.79,0-13.79H766.69v13.79Zm0,30c11.82,0,11.6-15.87,0-15.87H766.69V133.1Z"/><path class="cls-2" d="M835.31,103.22h31.41v17H835.31v11.6h34.14v18.49h-54V72.8h54V91.18H835.31Z"/><path class="cls-2" d="M915.63,91.29v59H895.83v-59H875.25V72.69h61v18.6Z"/><path class="cls-2" d="M981.95,119.31c.11,0,2-14.56,2-14.56l-.55-.11L976,119.75l-18.6,30.53h-18.5V72.8h19.7v35.13c-.11,0-1.64,11.6-1.64,11.6l.44.11,6.46-13.9L983.7,72.8h17.95v77.48h-19.7Z"/><path class="cls-2" d="M1033.6,150.28h-19.7V72.8h19.7v29.33h22.33V72.8h19.7v77.48h-19.7V121.06H1033.6Z"/><path class="cls-2" d="M1144.46,134a31.17,31.17,0,0,1-27.91,17.4c-15.21,0-30.53-8.86-30.53-26.48V98.19c0-17.51,15.32-26.48,30.86-26.48,9.52,0,21,4,27.25,17.84l-16,6.46c-5.25-9.63-22.54-7.44-22.54,2.19v26.7c0,9.3,17.51,11.93,21.78,1.2Z"/><path class="cls-2" d="M1192.28,72.8h24.4L1186,110.88l30.53,39.4H1192l-20-27.69-.66.88v26.81h-19.7V72.8h19.7v28.67Z"/><path class="cls-2" d="M1286.28,150.28h-21l-5-15.54h-20.68l-4.81,15.54h-21l27-77.48h17.84Zm-30.75-32.94-5.36-22.65h-.55l-5.69,22.65Z"/><path class="cls-2" d="M1330.17,150.28v-26H1327l-20.79,26h-24.4l23.64-28c-8.75-3.06-15.76-9.08-15.76-24,.44-16.31,11.38-25.5,29.33-25.5h30.86v77.48ZM1318.67,91.4c-5.91,0-9.3,3.06-9.3,8.43,0,5,3,9,9.3,9h11.49V91.4Z"/><path class="cls-2" d="M439.05,184.05h24.4l-30.64,38.08,30.53,39.4H438.72l-20-27.69-.66.88v26.81h-19.7V184.05H418v28.67Z"/><path class="cls-2" d="M468.38,184.05h31c18.93,0,28.34,13.68,28.34,27.36s-9.52,27.47-28.23,27.47H488v22.65H468.38Zm31,37.43c11.82.11,11.82-19.26,0-19.15H488v19.15Z"/><path class="cls-2" d="M555.82,214.47h31.41v17H555.82V243H590v18.5H536V184.05h54v18.38H555.82Z"/><path class="cls-2" d="M620.05,261.53h-19.7V184.05h61.17v77.48h-19.7V202.65H620.05Z"/><path class="cls-2" d="M671.92,209.55c0-17.84,16-26.59,32.07-26.59s32.17,8.86,32.17,26.59V236c0,17.73-16,26.59-32.06,26.59s-32.17-8.86-32.17-26.59ZM691.51,236c0,5.69,6.35,8.43,12.58,8.43s12.48-2.85,12.48-8.43V209.55c0-6-6.46-8.75-12.8-8.75-6.13,0-12.26,3.06-12.26,8.75Z"/><path class="cls-2" d="M803.13,245.22a31.17,31.17,0,0,1-27.91,17.4c-15.21,0-30.53-8.86-30.53-26.48v-26.7C744.7,191.93,760,183,775.56,183c9.52,0,21,4,27.25,17.84l-16,6.46c-5.25-9.63-22.54-7.44-22.54,2.19v26.7c0,9.3,17.51,11.93,21.78,1.2Z"/><path class="cls-2" d="M846,202.55v59H826.22v-59H805.65v-18.6h61v18.6Z"/><path class="cls-2" d="M906.11,261.53H874.26V184.05H894v26.37h11.6c21,0,27.91,9.74,27.91,24.51C933.47,250.15,923.29,261.53,906.11,261.53Zm-.55-17.18c6.68,0,8.65-4.71,8.65-9.63,0-5.69-3.28-8.75-8.65-8.75H894v18.39Z"/><path class="cls-2" d="M1089.73,184.05v18.6h-28.56v58.88h-19.7V184.05Z"/><path class="cls-2" d="M1162.62,261.53h-21l-5-15.54h-20.68l-4.81,15.54h-21l27-77.48h17.84Zm-30.75-32.94-5.36-22.65H1126l-5.69,22.65Z"/><path class="cls-2" d="M1216,220.27A19.65,19.65,0,0,1,1227,241.5c-2,12.48-10.4,20-27.58,20h-31.63V184.05h31.08c14.77,0,25.61,8.86,25.17,23.64C1223.9,211.19,1221.6,217.43,1216,220.27Zm-17.18-5.91c9.52,0,9.85-13.79,0-13.79h-11.38v13.79Zm0,30c11.82,0,11.6-15.87,0-15.87h-11.38v15.87Z"/><path class="cls-2" d="M1302,261.53h-21L1276,246h-20.68l-4.81,15.54h-21l27-77.48h17.84Zm-30.75-32.94-5.36-22.65h-.55l-5.69,22.65Z"/><path class="cls-2" d="M1350.18,230.56c.11,0,2-14.56,2-14.56l-.55-.11-7.33,15.1-18.6,30.53h-18.49V184.05h19.7v35.13c-.11,0-1.64,11.6-1.64,11.6l.44.11,6.46-13.9,19.81-32.94h17.95v77.48h-19.7Zm-32-71.9h15.21a4.6,4.6,0,0,0,9.19,0h15.21c0,12.59-9.63,19-19.81,19S1318.23,171.25,1318.23,158.66Z"/><path class="cls-2" d="M1425.15,230.56c.11,0,2-14.56,2-14.56l-.55-.11-7.33,15.1-18.6,30.53h-18.5V184.05h19.7v35.13c-.11,0-1.64,11.6-1.64,11.6l.44.11,6.46-13.9,19.81-32.94h17.95v77.48h-19.7Z"/><rect class="cls-1" x="978.33" y="183.3" width="11.76" height="78.24"/></g></g></svg>